<?xml version="1.0" encoding="iso-8859-1"?>
<!-- Uploaded to: SVG Repo, www.svgrepo.com, Generator: SVG Repo Mixer Tools -->
<svg fill="#000000" version="1.1" id="Layer_1" xmlns="http://www.w3.org/2000/svg" xmlns:xlink="http://www.w3.org/1999/xlink" 
	 viewBox="0 0 480 480" xml:space="preserve">
<g>
	<g>
		<path d="M426.48,416c12.952-8.608,21.52-23.312,21.52-40c0-26.472-21.528-48-48-48c-16.688,0-31.392,8.568-40,21.52
			c-5.712-8.592-14.12-15.216-24-18.72V304h16v-16h-16v-48h16v-16h-24h-24h-58.256c0.504-0.408,1.08-0.696,1.568-1.128
			l46.008-40.896c1.648-1.464,2.616-3.536,2.68-5.744c0.064-2.2-0.784-4.336-2.336-5.888l-24-24c-2.88-2.88-7.48-3.144-10.656-0.592
			l-33.552,26.84L192,127.992C184.488,117.976,172.52,112,160,112H72c-22.056,0-40,17.944-40,40v48c0,9.04,3.128,17.296,8.208,24H8
			c-4.416,0-8,3.576-8,8v184h16V304h304v24c-16.688,0-31.392,8.568-40,21.52c-8.608-12.96-23.312-21.52-40-21.52
			s-31.392,8.568-40,21.52c-8.608-12.96-23.312-21.52-40-21.52s-31.392,8.568-40,21.52C111.392,336.56,96.688,328,80,328
			c-26.472,0-48,21.528-48,48c0,16.688,8.568,31.392,21.52,40C40.568,424.608,32,439.312,32,456v24h16v-24c0-17.648,14.352-32,32-32
			s32,14.352,32,32v24h16v-24c0-17.648,14.352-32,32-32s32,14.352,32,32v24h16v-24c0-17.648,14.352-32,32-32s32,14.352,32,32v24h16
			v-24c0-17.648,14.352-32,32-32s32,14.352,32,32v24h16v-24c0-17.648,14.352-32,32-32s32,14.352,32,32v24h16v-24
			C448,439.312,439.432,424.608,426.48,416z M129.872,128L120,144.456L110.128,128H129.872z M48,152c0-13.232,10.768-24,24-24
			h19.472l21.672,36.12c1.44,2.4,4.048,3.88,6.856,3.88s5.416-1.48,6.856-3.88L148.528,128H160c7.512,0,14.696,3.584,19.2,9.592
			l38.4,51.2c1.296,1.736,3.24,2.864,5.392,3.144c2.152,0.256,4.312-0.336,6-1.688L263.4,162.72l12.936,12.936l-39.664,35.264
			c-5.072,4.504-11.56,6.624-18.344,5.936c-6.76-0.68-12.72-4.048-16.8-9.48L174.4,171.2c-2.064-2.76-5.656-3.896-8.928-2.792
			C162.2,169.504,160,172.552,160,176v48h-32v-24c0-4.424-3.584-8-8-8H80v-32H64v40c0,4.424,3.584,8,8,8h40v16H72
			c-13.232,0-24-10.768-24-24V152z M195.704,224H176v-24l12.736,16.976C190.736,219.656,193.136,221.936,195.704,224z M16,288v-48
			h56h48h184h16v48H16z M80,408c-17.648,0-32-14.352-32-32s14.352-32,32-32s32,14.352,32,32S97.648,408,80,408z M120,429.52
			c-3.56-5.36-8.16-9.96-13.52-13.52c5.36-3.56,9.96-8.16,13.52-13.52c3.56,5.36,8.16,9.96,13.52,13.52
			C128.16,419.56,123.56,424.16,120,429.52z M160,408c-17.648,0-32-14.352-32-32s14.352-32,32-32s32,14.352,32,32
			S177.648,408,160,408z M200,429.52c-3.56-5.36-8.16-9.96-13.52-13.52c5.36-3.56,9.96-8.16,13.52-13.52
			c3.56,5.36,8.16,9.96,13.52,13.52C208.16,419.56,203.56,424.16,200,429.52z M240,408c-17.648,0-32-14.352-32-32s14.352-32,32-32
			s32,14.352,32,32S257.648,408,240,408z M280,429.52c-3.56-5.36-8.16-9.96-13.52-13.52c5.36-3.56,9.96-8.16,13.52-13.52
			c3.56,5.36,8.16,9.96,13.52,13.52C288.16,419.56,283.56,424.16,280,429.52z M320,408c-17.648,0-32-14.352-32-32s14.352-32,32-32
			s32,14.352,32,32S337.648,408,320,408z M360,429.52c-3.56-5.36-8.16-9.96-13.52-13.52c5.36-3.56,9.96-8.16,13.52-13.52
			c3.56,5.36,8.16,9.96,13.52,13.52C368.16,419.56,363.56,424.16,360,429.52z M400,408c-17.648,0-32-14.352-32-32s14.352-32,32-32
			s32,14.352,32,32S417.648,408,400,408z"/>
	</g>
</g>
<g>
	<g>
		<rect x="288" y="256" width="16" height="16"/>
	</g>
</g>
<g>
	<g>
		<rect x="256" y="256" width="16" height="16"/>
	</g>
</g>
<g>
	<g>
		<rect x="224" y="256" width="16" height="16"/>
	</g>
</g>
<g>
	<g>
		<path d="M120,0C93.528,0,72,21.528,72,48s21.528,48,48,48s48-21.528,48-48S146.472,0,120,0z M120,80c-17.648,0-32-14.352-32-32
			s14.352-32,32-32s32,14.352,32,32S137.648,80,120,80z"/>
	</g>
</g>
<g>
	<g>
		<path d="M456,56c-5.048,0-9.728,1.584-13.592,4.256l-50.696-25.352C391.824,33.944,392,32.992,392,32c0-13.232-10.768-24-24-24
			s-24,10.768-24,24c0,6.216,2.432,11.832,6.32,16.096l-26.84,40.256C322.336,88.184,321.192,88,320,88
			c-9.664,0-17.968,5.776-21.768,14.032L255.8,89.912c0.056-0.648,0.2-1.256,0.2-1.912c0-13.232-10.768-24-24-24s-24,10.768-24,24
			s10.768,24,24,24c6.752,0,12.84-2.824,17.208-7.328l47.744,13.64C299.736,128.472,308.96,136,320,136c13.232,0,24-10.768,24-24
			c0-6.216-2.432-11.832-6.32-16.096l26.84-40.256C365.664,55.816,366.808,56,368,56c6.456,0,12.296-2.592,16.616-6.752
			l48.408,24.208C432.424,75.552,432,77.72,432,80c0,13.232,10.768,24,24,24s24-10.768,24-24S469.232,56,456,56z M232,96
			c-4.408,0-8-3.584-8-8s3.592-8,8-8s8,3.584,8,8S236.408,96,232,96z M320,120c-4.408,0-8-3.584-8-8s3.592-8,8-8
			c4.408,0,8,3.584,8,8S324.408,120,320,120z M368,40c-4.408,0-8-3.584-8-8s3.592-8,8-8c4.408,0,8,3.584,8,8S372.408,40,368,40z
			 M456,88c-4.408,0-8-3.584-8-8s3.592-8,8-8c4.408,0,8,3.584,8,8S460.408,88,456,88z"/>
	</g>
</g>
<g>
	<g>
		<rect x="448" y="128" width="16" height="16"/>
	</g>
</g>
<g>
	<g>
		<rect x="416" y="128" width="16" height="16"/>
	</g>
</g>
<g>
	<g>
		<rect x="384" y="128" width="16" height="16"/>
	</g>
</g>
</svg>