<svg xmlns="http://www.w3.org/2000/svg" viewBox="0 0 567.58 436.76"><defs><style>.cls-1{fill:#4f534c;}.cls-2{fill:#3d4a52;}.cls-3{fill:#2b262a;}.cls-4{fill:#747e88;}.cls-5{fill:#555459;}.cls-6{fill:#4b2d0b;}.cls-7{fill:#895525;}.cls-8{fill:#c27636;}.cls-9{fill:#9ea2ac;}.cls-10{fill:#222324;}.cls-11{fill:#e68a41;}.cls-12{fill:#0d0c10;}.cls-13{fill:#1e1f20;}.cls-14{fill:#d4af86;}.cls-15{fill:#7da0c5;}.cls-16{fill:#f39110;}.cls-17{fill:#f2c0d8;}.cls-18{fill:#e41628;}.cls-19{fill:#d7e6e4;}.cls-20{fill:#1f201f;}.cls-21{fill:#b46e32;}</style></defs><g id="Calque_4" data-name="Calque 4"><rect class="cls-1" width="567.58" height="436.76"/></g><g id="Calque_3" data-name="Calque 3"><path class="cls-2" d="M120.61,287.72c-1.48,2.65,3.22-5.28-2.32-1.89s-8.09-.17-12.3,2.23l-2,1a7.07,7.07,0,0,0,2.81-3.8c.82-2.64,6.27-17.51-2.23-19.65s-10.41-5.12-13.54-3.39-15,9-21.22,8-9.25-1.73-12.8-.66c0-.83,3.14-3.39,7.1-3.47s6-2.48,3-2.23-8.26,2.07-14.53-.91C54.47,261.3,61,259.16,64,256s-5.94,3.8-8.83,1-.41-3.72.08-4.13,3.3-10.07,6.52-11.72-8.6,4.71-12.88,3.3-7.92-3.3-3.22-7.93c-3.46-.41-8.34-2.31-4.87-7.68s7.76-12.55,3.47-13.21-10.4-1-7.6-4-.41-.91-3.13-1.32-2.15-3.55,0-6,.49-3.22-2.56-3.88,1.15-1.82,2.31-2.81-6.86-5.45-5.37-10.32-11.06-14.61-4.79-16.18,13.3-2.31,8.84-3.14-6.69-.66-8.76-5.78-2.31-5.2.09-5,.74-1.57-.91-3.3-1.07-9.25-3.14-11.39,11.31,1.23,10.32.49-4.21-5.2-4.37-12,1.23-6.77-.17-9.58,11.73,7.68,11.31,5-4.95-4.88-5.94-12.89.25-9.33-1.49-11.31,14.29,8.26,25,17.51,2.31,3.88-2.72-10.49S50.75,83.12,50,78.83s9.16,11.89,15.85,23.11-4.29-10.48-.25-26.42,6.2-11.75,7.19-15.27C74.12,55.54,77.92,91.46,83.45,98s1.4,8.59,2.56-12.47,8.26-29,9.33-31.87S95.09,76.43,98.06,90s4.49,1.82,7.88-10.9c1.73-7.26,6.38-13.1,9.46-20.14,0,0-12.55,56.7-3,94.95S133.18,265.18,120.61,287.72Z" transform="translate(35.04 -20.48)"/><path class="cls-3" d="M155.53,211.68c-7.76-4-23.61-14.59-22.95-23.29,2.09-26.53-10.57-34.34-10.57-34.34s-1.49,9.57-6.61,10.56c0,0-1.65-19.92-10.34-9.68-10.46,8.91-14.15,12.79-9,16s36.83,44.26,46.08,44.37S155.53,211.68,155.53,211.68Z" transform="translate(35.04 -20.48)"/><path class="cls-4" d="M176.67,220.93c-1.38-14.43-27.41-3.8-39.74-16.79-3.25-3.64-24.66-30.11-34.9-35.29s-9.42-2.69-5.84,6.17,6.22,21.8,4.9,31.81-2.26,14.54-2.59,16.41.61,9.41,3.14,12.44.88,3.25.17,6.27,1.87,4.19.55,6.06-.66,3.3,3,1.76,7.1-4.13,8.64-4.65-3.8,4.65-5.67,6.41-4.24,6,2.31,4.57,16.13-1.93,20.48-3.91-7,7.32-10.51,11.89-8,12.61-2.15,8.75,9.8-6.22,12.66-8.42,2.81-2.91.88,2.87-6.66,21.08,3.09,7.48,50.2-46.84,48-49.59Z" transform="translate(35.04 -20.48)"/><path class="cls-2" d="M262.45,259.15l-.58,2.63s26.81,12.49,30.66,23.13c1.87,4.77,19.6,12.38,49.21,16.68a238.19,238.19,0,0,1,27.09,5.23c3.85.93,18.33,3.08,24.55,3.74a121.37,121.37,0,0,1-26.92-.44s1.65,1.93,8.09,3.25,12.28,2.14,19.38,3.63,19.32,3.3,27.58,3.3,46.12,2.62,72.27-43.46c0,0-8.86,26.29-35.5,39.61,0,0,12-2.81,24.55-15.58-6.55,7.54-11.78,12.06-23.89,18.28-3.47,1.87-6.77,3.74-6.44,6.16.66,1.6,8.53.83,13.15-1.1-1.92,2-14.36,12.06-27.3,9.52s15.3,6.4,9.91,6.33c-8.53-.11-12,5.69-13.71,6.28-3.59,1.25-8.8-.39-9.91,1.05s-.49,3.46,2.81,7a81.69,81.69,0,0,1-21.14,1.16c-1.21-.17-1.48.11.28,3s1.15,3.09-8.31,3.14-10.19-1.21-11.18-4-10.29-8-7-2.75,6.22,8,.39,7.82-14-.39-17.84-2.75c-1.21-.11,1.16,4.34-5.28,4.45s-10.79-.91-13.38,1.66-1.15,2.64-4.57,2.47-2.53-3.21-10.46-4.07-11.14-6.61-6.3-10.65,2.92-9.5-3.69-3.85-9.13,5.39-7.76.77-4.81-6-8.75-2.34-5.37,4.73-3.22.3-4.35-8.73-9.36-2.29-6.41,6-7.24,4.05-4.57-2.75-7.48,1.51-4.9,1.72-7.24,2.12-3.66,2.57-5.89.44-1.72-3.26,1.65-14.42c3.08-10.48,5.95-21.55-17.5,16.16-1.45,2-2.26,4-8.54,3.85s-5.09-5.43-10.13-.27c-3.43,3.51-6.19-.87-9-2.92s-7.15-6-8.09-8.48-1.16-2-2.59.28-8.64,10.84-10.35,21c0,0,11.12-76.11,21.69-85.54S262.45,259.15,262.45,259.15Z" transform="translate(35.04 -20.48)"/><path class="cls-3" d="M293.06,285c1.87,4.77,19.59,12.39,49.21,16.68a237.87,237.87,0,0,1,27.08,5.23c3.85.93,18.33,3.08,24.55,3.74a121.37,121.37,0,0,1-26.92-.44s1.65,1.93,8.09,3.25,12.28,2.15,19.38,3.63,19.32,3.31,27.58,3.31,46.13,2.61,72.27-43.46c0,0-8.86,26.28-35.5,39.6,0,0,12-2.81,24.55-15.58-6.55,7.55-11.78,12.06-23.89,18.28-10,3.8-68.17,7.54-85.78,3.91s-94.46-28.85-88.62-33.25S293.06,285,293.06,285Z" transform="translate(35.04 -20.48)"/><path class="cls-4" d="M220.27,284.69c10.57-9.43,42.56-25.29,42.56-25.29l-.25,2.19s26.51,10.2,31,23.76c1.87,4.77-1.83,13.25,27.79,17.54,12.82,1.65,43.37,12.55,58.34,20.48,3.2,5.94-17.28-.66-36.44-3.75S242.23,320.83,234,322.49,220.27,284.69,220.27,284.69Z" transform="translate(35.04 -20.48)"/><path class="cls-5" d="M101.9,354.53c-2.68,1.56-17.81,5.94-20.4,6.64s-3.57,2.78,0,2.53,4.84.77.63,2.71-7.47,4.38-8.8,6.28,6.73-.91,5,1.15-8.13,4.88-8,9.13,3.43,1.62,2,2.93-5.57,8.5-4.79,9.49,1.16,1-.33,2.23-9.37,6.53-4.7,6.57,6.73-2.19,7-2.44,2.39.7,4,.08,2-1.23,4-.74,8-1.48,9.12-2.56,6.85-3.88,10.86-3.88.86,2.77-.29,3.51,3,1,5.24-1.2,3-2.47,5-2.8-.31,2.76-.18,4.08,4.51,1.08,6.08-.95,2.6-2.89,4.34-.86,3.55.41,5-1.41,2-1.85,2.56.09,7.27,5.32,8.05,1.73,2.27-9.08,2.93-6.23,1.61,9.41,5.58,9.7,4.46-3.26,5.69-2.23,3.31,4.09,5.83,5.78,6.62,3.22,5.06-3.18-9.95-21.12-11-22.21S101.9,354.53,101.9,354.53Z" transform="translate(35.04 -20.48)"/><path class="cls-6" d="M208.21,388.21a16,16,0,0,1,3.47-1c1.26,0,.41,1.36,2.12,1.22s20.64-1.76,27.14-2.64,7.67-.14,8,0-2.84,1.87-1.93,3.33,3.14,1.79,5.95,1,12-3.39,8.75-.39-29.59,11.92-39.3,12-8.45,1.49-11.37,1.41-4.24-4-5.86-1.74-2.48,3.25-5,4c0,0,0-6,.42-6.62S208.21,388.21,208.21,388.21Z" transform="translate(35.04 -20.48)"/><path class="cls-7" d="M191.55,380.08c2,.95,1.22,3.34,3.53,5.08s5.53,6,9.09,5,3.05-1.9,4-2-3.71,8.67-5.86,10.24-.25,2.31.66,3.05.58,2.65-1.57,3.47-7.51,2.73-4.71-2.14,5-4.55,1.66-6-14.95-5-13.59-10.77A7.5,7.5,0,0,1,191.55,380.08Z" transform="translate(35.04 -20.48)"/><path class="cls-8" d="M146.47,377.37c2.5,0,4.23-2.08,9.64,2.09s16.35,9.12,25,7.35,8.67-1.74,9.78-5.37,9.91-9.5,7.93-11.89-13-19.65-13-19.65l-17.09-3-15.89,14.94,2.06,5.2-11.52,9.13Z" transform="translate(35.04 -20.48)"/><path class="cls-9" d="M107.56,326.44C107.37,331,100.42,341.52,97,344a40.35,40.35,0,0,0,4.91-3.84c.5-.66-3.59,5.73-6.39,7.55,2.84-2,3.3-1.94,4.08-2.72s-1.4,3.67-3.34,4.54c1.61-.58,1.94-.62,2.23-.91s-2.15,6.23-3.26,9,5.45.7,9.12-3.34S107.56,326.44,107.56,326.44Z" transform="translate(35.04 -20.48)"/><path class="cls-10" d="M121,354.92l5.28-38.67,22.87-5.86,8.92,14.16-4.33,14.2-15.78,19.17s-15.92,4.65-18.08,3.25S121,354.92,121,354.92Z" transform="translate(35.04 -20.48)"/><path class="cls-11" d="M136.21,354.52l19,10.57-.37,2s-9.37,8.3-8.4,10.3-19.88-13.52-19.88-13.52,1.06-.93,1.38-3.64,3-8.58,8.24-5.69" transform="translate(35.04 -20.48)"/><path class="cls-12" d="M107.39,329.75c-.82,13.21-1,20.23-6.81,26.3s-13.7,28.82-17,35.22-2.64,4.41,1.08,3.59c14.49-3.22,25-.5,28.65-2s4.75-3.47,9.83-.75,5.28-8.71,8.79-6.31,4.87,2.06,8.42,1,9.54-5.91,7.1-8.38-7.26-9.08-14.7-12.3c-6.19-2.59-5-4-4.81-6-.19-2.18-8.85-3-9.18-13.16S107.39,329.75,107.39,329.75Z" transform="translate(35.04 -20.48)"/><path class="cls-13" d="M187.36,223.24c-2.56-1.32-10.19-2.31-10.69-2.31,11.06,7-8.75,8.29-13,10.15-4.75,2.23-11.77,7.76-13,8.88s3.88-.41,2.44,1.2-45,50.28-45.75,88.59,3.06,37.32,13,25.93,4.46-31.38,13.21-38.31,27.08-3.8,16.68,14.2-15,22-14,22.95,1.82,6.56,7.43,8.07,10.74,3.33,11.23,4.48c2-1,12.06-12.71,16.52-14.69s8.58-4.46,12.38,4.95,4.95,9.58,9.41,9.74,5.62,2.48,5.62,2.48-2.31-12.72,23.86-40S256.19,288.3,261.1,268,187.36,223.24,187.36,223.24Z" transform="translate(35.04 -20.48)"/><path class="cls-14" d="M241,226.49c-19.49,1.37-32.36-.26-53.66-3.25,3.53,5.06,5.11,10,7,27.45s6.94,43.72,30.6,43.83,34.3-14.16,38.65-36S242.34,226.27,241,226.49Z" transform="translate(35.04 -20.48)"/><g id="tête"><path class="cls-15" d="M258,220.25c7.74-.81,25.95-1.63,31.61,2.3,6.95,3.88,4.43,4.54-7,1.51-11.73.8-14.29,9.47-14.29,9.47s-3.74-8.42-6.38-7.15-3.53,9.86-25.44,22.73c-1.76-1.93-5.94-4.9-5.61-10.84C231.11,228.88,250.24,221.06,258,220.25Z" transform="translate(35.04 -20.48)"/><path class="cls-16" d="M278.75,252.48s-9.73-17.85-9.11-20.24.83-4.82,3.8-6.09,5.53-2.79,8.92-2,7.31,11.27,7.18,14.57a9.61,9.61,0,0,0,1.56,5.59Z" transform="translate(35.04 -20.48)"/><path class="cls-17" d="M296.35,249.11s9,6.54,8.18,9.55.12,1.57-12.26-1.24S295.82,248.71,296.35,249.11Z" transform="translate(35.04 -20.48)"/><path class="cls-18" d="M291.1,244.31l5.25,4.8s-12.46,6.7-4.08,8.31a79.84,79.84,0,0,0-11.48.87l-9.12-1.86s-1-4.79,2-4.25a19.34,19.34,0,0,0,5.1.3S282.55,239,291.1,244.31Z" transform="translate(35.04 -20.48)"/><path class="cls-19" d="M273.73,254.16c-.37-.62,2.35-.58,3.47-.49s2.85.2,1.81-.91-5.81-5.71-10.69-19.23-10.14-5.34-12.05,0c-3.84,3.13-14.51,12.8-19.77,15.58,0,0-3,2.28,1.72,7.49s11.94,11.68,17.43,3.84c1.44-2.19,7.76-.5,25.14-2.15C276.66,256.6,274.1,254.78,273.73,254.16ZM263.66,234c-2.73.62-5.08.29-4.22-1.44s2.32-3.91,4.42-2.51C265.16,230.88,266.38,233.35,263.66,234Z" transform="translate(35.04 -20.48)"/><path class="cls-20" d="M267.12,233c.75-4.94,2-5.67,8.12-8.1s14.17-2.44,16.81-.83,10.37,10.18-.95,20.23c-.85-.51-4.08-1.32-3.59-7.1s-3.88-13.29-7.92-12.8-8.43,3.18-7.93,8.13,7.09,19.94,7.09,19.94-2.92-.24-5.36-5S266.7,235.71,267.12,233Z" transform="translate(35.04 -20.48)"/></g><path class="cls-21" d="M160,365.09c2.31-2,9.47-10,14.2-11.06s-10,11.45-13.65,13.54-11.45,8.2-8.31,4.9S160,365.09,160,365.09Z" transform="translate(35.04 -20.48)"/><path class="cls-21" d="M172.6,372.25c5.43-.51,19.15-3.8,20.53-4.13s5.39,1.21.49,2.06-13.48,6-21.85,5.59-15.83,0-16.53-.38S163.07,373.13,172.6,372.25Z" transform="translate(35.04 -20.48)"/><path class="cls-21" d="M171.11,383.31c5.23.82,10.79,1.16,14.7,0s-3.09,3.14-8,2.53-15.42-2.47-18.61-5.72S163.35,382.1,171.11,383.31Z" transform="translate(35.04 -20.48)"/></g></svg>